<svg width="529.1" height="128.9715856939145" viewBox="0 0 369.57894736842104 90.08728573274055" class="looka-1j8o68f"><defs id="SvgjsDefs1662"><linearGradient id="SvgjsLinearGradient1667"><stop id="SvgjsStop1668" stop-color="#26275f" offset="0"></stop><stop id="SvgjsStop1669" stop-color="#813e96" offset="0.14"></stop><stop id="SvgjsStop1670" stop-color="#2e64af" offset="0.29"></stop><stop id="SvgjsStop1671" stop-color="#3faa49" offset="0.5"></stop><stop id="SvgjsStop1672" stop-color="#f2e64a" offset="0.71"></stop><stop id="SvgjsStop1673" stop-color="#f2903b" offset="0.86"></stop><stop id="SvgjsStop1674" stop-color="#ed4533" offset="1"></stop></linearGradient><linearGradient id="SvgjsLinearGradient1675"><stop id="SvgjsStop1676" stop-color="#7f00ff" offset="0"></stop><stop id="SvgjsStop1677" stop-color="#e100ff" offset="1"></stop></linearGradient></defs><g id="SvgjsG1663" featurekey="xG21Y3-0" transform="matrix(1.4120261013201025,0,0,1.4120261013201025,-11.744585163683674,-21.603999619520174)" fill="url(#SvgjsLinearGradient1667)"><g xmlns="http://www.w3.org/2000/svg"><polygon points="73.7,57.7 73.7,57.7 73.7,57.7  "></polygon><path d="M74.5,58C74.5,58,74.5,58,74.5,58C74.5,58,74.5,58,74.5,58L74.5,58z"></path></g><g xmlns="http://www.w3.org/2000/svg"><path d="M92.1,42.5c-0.9-5-8.8-7.9-21.7-8.1c-4.6-5.9-11.9-9.7-19.9-9.7c-11.4,0-21,7.5-24.2,17.9C14,47.5,7.5,53.1,8.4,58   c0.7,3.9,5.8,6.6,14.4,7.7c2.5,0.3,5.2,0.5,8.2,0.5c4.8,5.8,11.9,9.1,19.5,9.1c10.9,0,20.5-6.9,24-17.3c0,0,0,0,0-0.1l0,0   C86.6,53.2,93,47.5,92.1,42.5z M50.5,26.3c12.6,0,23.2,10.1,23.7,22.7c-0.5,0.3-1,0.6-1.5,0.9c-5.1,2.7-12.8,5.2-21.1,6.8   c-7.7,1.4-15.1,1.9-20.9,1.4c-0.2,0-0.4,0-0.6-0.1c-0.6-0.1-1.3-0.2-1.8-0.2c-0.9-2.5-1.3-5.1-1.3-7.8   C26.8,36.9,37.4,26.3,50.5,26.3z M30.5,59.7c1.5,0.1,3.2,0.2,5,0.2c4.9,0,10.5-0.5,16.3-1.6c9.7-1.8,18.5-4.8,23.7-8.1   c3.5-2.2,5-4.4,4.6-6.4c-0.4-2.1-2.6-3.5-6.6-4.4c-0.1-0.4-0.3-0.7-0.5-1c7,0.7,11.4,2.5,11.9,5.1c0.5,2.7-3.4,6.2-10.4,9.5   c-6,2.8-14,5.2-22.3,6.8c-9.4,1.7-18.4,2.3-25.4,1.5c-6.5-0.7-10.6-2.6-11-5c-0.5-2.6,3.2-6,9.8-9.2c0,0.4-0.1,0.7-0.1,1.1   c-3.8,2.3-5.5,4.6-5.2,6.8C20.6,57.4,24.2,59.1,30.5,59.7z M74.2,41.2c2.5,0.7,4,1.7,4.2,2.8c0.2,1.1-0.8,2.5-2.7,4   C75.5,45.6,75,43.4,74.2,41.2z M21.7,54.5c-0.2-1.2,1-2.8,3.5-4.5c0,2.5,0.4,5,1.1,7.4C23.6,56.7,21.9,55.7,21.7,54.5z M50.5,73.7   c-6.6,0-12.8-2.7-17.3-7.5c6.1-0.1,12.8-0.8,19.6-2c7-1.3,13.8-3.1,19.6-5.3C68.9,67.7,60.2,73.7,50.5,73.7z M73.7,57.7L73.7,57.7   L73.7,57.7L73.7,57.7z M73.9,56.4c-2.5,1-5.1,1.9-7.9,2.8c-4.2,1.3-8.8,2.4-13.5,3.3c-4.7,0.9-9.2,1.5-13.6,1.8c0,0,0,0,0,0   c-5.8,0.4-11.2,0.3-15.8-0.2c-7.7-1-12.4-3.2-12.9-6.3c-0.7-3.8,5.2-8.7,15.6-13c0,0.1,0,0.2-0.1,0.3c-8.3,3.8-12.5,7.9-11.8,11.6   c0.6,3.3,4.9,5.5,12.5,6.3c2.2,0.2,4.5,0.4,7,0.4c5.7,0,12.2-0.6,18.9-1.9c8.5-1.6,16.6-4,22.8-6.9v0c8-3.7,12-7.8,11.4-11.4   c-0.7-3.6-5.8-5.9-14.5-6.5c-0.1-0.1-0.2-0.2-0.2-0.4c10.9,0.4,18,2.9,18.8,6.7C91.1,46.8,84.8,52,73.9,56.4z"></path></g><g xmlns="http://www.w3.org/2000/svg"><path d="M32.7,26.1c-2.3,0-3.9-1.6-3.9-3.9c0-0.4-0.4-0.8-0.8-0.8c-0.5,0-0.8,0.4-0.8,0.8c0,2.3-1.6,3.9-3.9,3.9   c-0.5,0-0.8,0.4-0.8,0.8s0.4,0.8,0.8,0.8c2.3,0,3.9,1.6,3.9,3.9c0,0.5,0.4,0.8,0.8,0.8c0.4,0,0.8-0.4,0.8-0.8   c0-2.3,1.6-3.9,3.9-3.9c0.5,0,0.8-0.4,0.8-0.8S33.1,26.1,32.7,26.1z M27.9,28.7c-0.4-0.7-1-1.3-1.7-1.7c0.7-0.4,1.3-1,1.7-1.7   c0.4,0.7,1,1.3,1.7,1.7C28.9,27.4,28.3,28,27.9,28.7z"></path></g><g xmlns="http://www.w3.org/2000/svg"><path d="M80.4,72.8c-2.3,0-3.9-1.6-3.9-3.9c0-0.5-0.4-0.8-0.8-0.8c-0.5,0-0.8,0.4-0.8,0.8c0,2.3-1.6,3.9-3.9,3.9   c-0.5,0-0.8,0.4-0.8,0.8c0,0.4,0.4,0.8,0.8,0.8c2.3,0,3.9,1.6,3.9,3.9c0,0.4,0.4,0.8,0.8,0.8c0.5,0,0.8-0.4,0.8-0.8   c0-2.3,1.6-3.9,3.9-3.9c0.5,0,0.8-0.4,0.8-0.8C81.2,73.2,80.9,72.8,80.4,72.8z M75.7,75.3c-0.4-0.7-1-1.3-1.7-1.7   c0.7-0.4,1.3-1,1.7-1.7c0.4,0.7,1,1.3,1.7,1.7C76.7,74.1,76.1,74.6,75.7,75.3z"></path></g><g xmlns="http://www.w3.org/2000/svg"><path d="M63.3,15.3c-1.3,0-2.4,1.1-2.4,2.4c0,1.3,1.1,2.4,2.4,2.4c1.3,0,2.4-1.1,2.4-2.4C65.7,16.4,64.6,15.3,63.3,15.3z    M63.3,18.5c-0.4,0-0.8-0.3-0.8-0.8c0-0.4,0.3-0.8,0.8-0.8c0.4,0,0.8,0.3,0.8,0.8C64.1,18.1,63.7,18.5,63.3,18.5z"></path></g><g xmlns="http://www.w3.org/2000/svg"><path d="M23.1,72.2c-1.2,0-2.2,1-2.2,2.2c0,1.2,1,2.2,2.2,2.2c1.2,0,2.2-1,2.2-2.2C25.4,73.2,24.4,72.2,23.1,72.2z M23.1,75.1   c-0.3,0-0.6-0.3-0.6-0.6c0-0.3,0.3-0.6,0.6-0.6c0.3,0,0.6,0.3,0.6,0.6C23.7,74.8,23.5,75.1,23.1,75.1z"></path></g><g xmlns="http://www.w3.org/2000/svg"><path d="M81.9,59.8c-1.4,0-2.6,1.2-2.6,2.6c0,1.4,1.2,2.6,2.6,2.6c1.4,0,2.6-1.1,2.6-2.6C84.5,60.9,83.3,59.8,81.9,59.8z    M81.9,63.3c-0.5,0-0.9-0.4-0.9-0.9c0-0.5,0.4-0.9,0.9-0.9c0.5,0,0.9,0.4,0.9,0.9C82.8,62.9,82.4,63.3,81.9,63.3z"></path></g></g><g id="SvgjsG1664" featurekey="n48U4P-0" transform="matrix(2.1554258986480392,0,0,2.1554258986480392,136.62052976821997,17.627855835098092)" fill="url(#SvgjsLinearGradient1675)"><path d="M14.98 20 l-0.14 -0.1 c-1.12 -0.66 -2.44 -0.7 -3.64 -0.22 c-0.9 0.36 -1.92 0.58 -2.96 0.58 c-4.2 0 -7.6 -3.14 -7.6 -7.26 s3.4 -7.26 7.6 -7.26 l0.76 0 c2.6 0 4.92 1.54 5.96 3.9 l-2.96 0 c-1.44 -2.2 -3.7 -3.46 -5.74 -2.98 c-2.7 0.64 -3.66 3.84 -2.56 7.44 c1.1 3.64 3.84 5.92 6.52 5.28 c1.06 -0.26 1.92 -0.96 2.48 -1.9 l0 -2.92 l-2.02 0 l0 -1 l4.3 0 l0 6.44 z M24.380000000000003 20 l-0.54 -0.14 c-0.9 -0.24 -1.88 -0.24 -2.72 0.02 c-0.34 0.1 -0.66 0.12 -0.98 0.12 c-1.96 0 -3.52 -1.54 -3.52 -3.48 c0 -1.9 1.56 -3.46 3.52 -3.46 c0.78 0 1.48 0.24 2.02 0.62 l0 -0.02 s0.16 -2.44 -0.92 -2.74 c-1.12 -0.32 -1.52 0.34 -2.34 1.58 l-1.68 -0.02 c0.52 -1.32 1.54 -2.24 2.98 -2.24 c0.54 0 1.1 0.1 1.64 0.26 c0 0 2.54 0.78 2.54 3.16 l0 6.34 z M18.24 17.02 c0.46 1.5 1.6 2.56 2.76 2.3 c1.12 -0.26 1.64 -1.72 1.18 -3.28 c-0.44 -1.48 -1.74 -2.54 -2.86 -2.26 c-1.14 0.28 -1.54 1.72 -1.08 3.24 z M25.959999999999997 20 l0 -0.54 c0.6 -0.7 0.96 -1.66 0.96 -2.62 l0 -7.66 c0 -0.96 -0.36 -1.9 -0.94 -2.58 l0 -0.6 l2.94 0 l0 10.86 c0 0.94 0.36 1.9 0.98 2.6 l0 0.54 l-3.94 0 z M38.92 20 l-0.54 -0.14 c-0.9 -0.24 -1.88 -0.24 -2.72 0.02 c-0.34 0.1 -0.66 0.12 -0.98 0.12 c-1.96 0 -3.52 -1.54 -3.52 -3.48 c0 -1.9 1.56 -3.46 3.52 -3.46 c0.78 0 1.48 0.24 2.02 0.62 l0 -0.02 s0.16 -2.44 -0.92 -2.74 c-1.12 -0.32 -1.52 0.34 -2.34 1.58 l-1.68 -0.02 c0.52 -1.32 1.54 -2.24 2.98 -2.24 c0.54 0 1.1 0.1 1.64 0.26 c0 0 2.54 0.78 2.54 3.16 l0 6.34 z M32.78 17.02 c0.46 1.5 1.6 2.56 2.76 2.3 c1.12 -0.26 1.64 -1.72 1.18 -3.28 c-0.44 -1.48 -1.74 -2.54 -2.86 -2.26 c-1.14 0.28 -1.54 1.72 -1.08 3.24 z M49.339999999999996 17.48 l1.36 0 c-0.88 1.6 -2.58 2.72 -4.52 2.72 c-2.84 0 -5.56 -1.9 -5.56 -4.98 c0 -3.38 2.72 -5.04 5.56 -5.04 l0.5 0 c1.7 0 3.28 1.1 3.96 2.66 l-2.18 0 c-0.82 -1.26 -1.92 -1.94 -3.02 -1.94 c-1.56 0 -2.46 1.38 -2.46 3.14 c0 3.04 2.14 5.64 4 5.64 c1.2 0 2.08 -0.94 2.36 -2.2 z M52.839999999999996 16.48 l0 -5.32 l-1.48 0 l0 -0.82 l1.48 0 l0 -3.32 l2.18 -1.04 l0 4.36 l1.44 0 l0 0.82 l-1.44 0 l0 5.2 c0 0.78 0.3 1.46 0.68 1.96 c0.22 0.3 0.48 0.52 0.76 0.68 l0 1.1 c-0.46 -0.02 -0.94 -0.12 -1.44 -0.32 c-1.16 -0.48 -2.18 -1.46 -2.18 -3.3 z M57.72 20 l0 -0.54 c0.56 -0.7 0.86 -1.66 0.86 -2.62 l0 -3.32 c0 -0.98 -0.3 -1.92 -0.86 -2.62 l0 -0.56 l2.76 0 l0 6.52 c0 0.94 0.32 1.9 0.9 2.6 l0 0.54 l-3.66 0 z M59.26 9.46 c-0.76 0 -1.38 -0.64 -1.38 -1.4 c0 -0.78 0.62 -1.4 1.38 -1.4 c0.78 0 1.4 0.62 1.4 1.4 c0 0.76 -0.62 1.4 -1.4 1.4 z M71.38 17.48 l1.36 0 c-0.88 1.6 -2.58 2.72 -4.52 2.72 c-2.84 0 -5.56 -1.9 -5.56 -4.98 c0 -3.38 2.72 -5.04 5.56 -5.04 l0.5 0 c1.7 0 3.28 1.1 3.96 2.66 l-2.18 0 c-0.82 -1.26 -1.92 -1.94 -3.02 -1.94 c-1.56 0 -2.46 1.38 -2.46 3.14 c0 3.04 2.14 5.64 4 5.64 c1.2 0 2.08 -0.94 2.36 -2.2 z M73.72 20 l0 -0.54 c0.68 -0.74 1.04 -1.68 1.04 -2.6 l0 -7.68 c0 -0.96 -0.36 -1.92 -1.02 -2.62 l0 -0.56 l4.26 0 l0 0.56 c-0.68 0.7 -1.08 1.66 -1.08 2.62 l0 3.56 l6.16 0 l0 -3.56 c0 -0.96 -0.38 -1.92 -1.06 -2.62 l0 -0.56 l4.26 0 l0 0.56 c-0.66 0.7 -1.02 1.66 -1.02 2.62 l0 7.68 c0 0.92 0.36 1.86 1.02 2.6 l0 0.54 l-4.26 0 l0 -0.54 c0.68 -0.74 1.06 -1.68 1.06 -2.6 l0 -3.2 l-6.16 0 l0 3.2 c0 0.92 0.4 1.86 1.04 2.6 l0 0.54 l-4.24 0 z M87.99999999999999 15.32 l-0.02 -2.68 c0 -0.42 -0.12 -0.78 -0.34 -1.12 l-0.36 -0.62 l0 -0.56 l3.42 0 l0 0.56 l-0.36 0.56 c-0.24 0.36 -0.46 0.84 -0.46 1.24 l0.1 4.2 c0.04 1.28 1.2 2.14 2.5 2.14 c1.96 0 2.44 -1.32 2.44 -2.6 l0 -3.96 c0 -0.6 -0.26 -1.16 -0.7 -1.54 l0 -0.6 l2.24 0 l0 0.6 l-0.16 0.18 c-0.4 0.4 -0.58 0.9 -0.58 1.44 l0 4.24 c0 0.8 -0.16 3.3 -3.32 3.3 c-2.5 0 -4.36 -0.74 -4.4 -4.78 z  M97.93999999999998 20.02 l0 -10.8 c0 -0.98 -0.38 -1.92 -1.04 -2.64 l0 -0.58 l3.2 0 l0 5.12 c0.78 -0.5 1.76 -0.84 2.78 -0.84 c3.2 0 5.2 2.18 5.2 4.9 c0 2.68 -2.46 4.84 -5.2 4.84 c-0.54 0 -1.02 -0.06 -1.5 -0.22 c-1.14 -0.4 -2.38 -0.26 -3.44 0.22 z M100.09999999999998 15.84 c0.68 2.24 2.36 3.74 4.02 3.36 c1.62 -0.38 2.42 -2.48 1.74 -4.72 c-0.68 -2.2 -2.52 -3.66 -4.18 -3.3 c-1.64 0.36 -2.26 2.46 -1.58 4.66 z"></path></g></svg>